<?xml version="1.0" encoding="UTF-8"?>
<svg id="Layer_2" data-name="Layer 2" xmlns="http://www.w3.org/2000/svg" viewBox="0 0 15.54 15.54">
  <g id="Layer_1-2" data-name="Layer 1">
    <path d="M12.54,0H2.99C1.34,0,0,1.34,0,2.99v8.33c0,2.33,1.89,4.22,4.22,4.22h7.1c2.33,0,4.22-1.89,4.22-4.22V2.99c0-1.65-1.34-2.99-2.99-2.99ZM12.66,12.74h-2.45c-1.18-1.33-2.42-2.81-3.81-4.44-.35-.43-.61-.46-.86-.44v2.91c0,1.33.14,1.44,1.41,1.54v.43H2.88v-.43c1.25-.11,1.38-.21,1.38-1.54v-5.96c0-1.38-.11-1.48-1.38-1.58v-.43h4.08v.43c-1.19.11-1.41.21-1.41,1.58v2.63c.31-.03.66-.28,1.1-.7.86-.81,1.88-1.85,2.58-2.65.46-.52.41-.72-.24-.81l-.43-.05v-.43h3.72v.43c-1.15.14-1.55.21-2.57,1.27-.46.44-1.65,1.61-2.63,2.57,1.16,1.38,2.86,3.33,3.65,4.18.78.84.98.96,1.93,1.07v.43Z"/>
  </g>
</svg>