<?xml version="1.0" encoding="UTF-8"?>
<svg id="Layer_2" data-name="Layer 2" xmlns="http://www.w3.org/2000/svg" viewBox="0 0 878.39 212.4">
  <defs>
    <style>
      .cls-1 {
        fill: #fff;
      }
    </style>
  </defs>
  <g id="_1_Layer" data-name="1 – Layer">
    <g>
      <path class="cls-1" d="M126.6,206.7v-9c11.4,0,17.1-1.6,17.1-4.8,0-2.6-2.6-7.5-7.8-14.7l-54-69.6-13.5,12.3c-2.2,2-4.15,4.3-5.85,6.9-1.7,2.6-2.85,5.7-3.45,9.3v39.9c0,13.8,10,20.7,30,20.7v9H2.1v-9c18.4,0,27.6-6.91,27.6-20.73V38.74c0-14.62-9.9-21.94-29.7-21.94V7.8h85.5v9c-17.6,0-26.4,7.33-26.4,21.97v73.13l69.9-66.51c4.6-4.21,7.65-7.57,9.15-10.08s2.25-5.97,2.25-10.39c0-5.41-6.9-8.12-20.7-8.12V7.8h77.7v9c-6,.6-10.95,1.45-14.85,2.55s-7.55,2.7-10.95,4.81c-3.4,2.1-7,4.91-10.8,8.41-3.8,3.51-8.7,8.16-14.7,13.97l-42.3,41.17,68.4,89.25c2.8,3,5.4,5.81,7.8,8.41,2.4,2.61,4.95,4.81,7.65,6.61,2.7,1.8,5.7,3.21,9,4.21,3.3,1,7.35,1.5,12.15,1.5v9h-82.2Z"/>
      <path class="cls-1" d="M293.7,206.7v-9c13,0,19.5-4.2,19.5-12.6v-49.2c0-27.4-9.8-41.1-29.4-41.1s-30,12.2-30,36.6v53.7c0,8.4,7.2,12.6,21.6,12.6v9h-63.6v-9c11.2,0,16.8-4.6,16.8-13.8v-76.5c0-7-5.4-10.5-16.2-10.5h-4.2v-7.8l43.2-10.5c.8.8,1.2,2.8,1.2,6v18c1.6-3,3.65-5.95,6.15-8.85,2.5-2.9,5.6-5.45,9.3-7.65,3.7-2.2,8.05-4,13.05-5.4,5-1.4,10.7-2.1,17.1-2.1,3.6,0,7.7.75,12.3,2.25,4.6,1.5,9,3.9,13.2,7.2,4.2,3.3,7.7,7.55,10.5,12.75,2.8,5.2,4.2,11.5,4.2,18.9v66.3c0,7.8,6.5,11.7,19.5,11.7v9h-64.2Z"/>
      <path class="cls-1" d="M437.7,212.4c-9.4,0-18-1.75-25.8-5.25-7.8-3.5-14.45-8.2-19.95-14.1-5.5-5.9-9.75-12.8-12.75-20.7-3-7.9-4.5-16.25-4.5-25.05,0-10.4,1.7-19.85,5.1-28.35,3.4-8.5,8-15.75,13.8-21.75,5.8-6,12.6-10.6,20.4-13.8,7.8-3.2,16.1-4.8,24.9-4.8s17.3,1.75,24.9,5.25c7.6,3.5,14.15,8.2,19.65,14.1,5.5,5.9,9.75,12.8,12.75,20.7,3,7.9,4.5,16.25,4.5,25.05,0,10.6-1.7,20.15-5.1,28.65-3.4,8.5-8,15.7-13.8,21.6-5.8,5.9-12.5,10.45-20.1,13.65-7.6,3.2-15.6,4.8-24,4.8ZM438.9,201.9c7.8,0,13.95-1.74,18.45-5.24,4.5-3.49,7.95-7.63,10.35-12.42,2.4-4.79,3.95-9.77,4.65-14.96.7-5.18,1.05-9.47,1.05-12.87,0-6.58-.4-13.81-1.2-21.69-.8-7.88-2.45-15.15-4.95-21.84-2.5-6.68-6.1-12.32-10.8-16.91-4.7-4.58-10.95-6.88-18.75-6.88s-14.3,1.75-18.9,5.24c-4.6,3.49-8.1,7.63-10.5,12.42-2.4,4.79-3.95,9.78-4.65,14.96-.7,5.18-1.05,9.47-1.05,12.86,0,6.59.4,13.82,1.2,21.69.8,7.88,2.45,15.16,4.95,21.84,2.5,6.68,6.15,12.32,10.95,16.9,4.8,4.59,11.2,6.88,19.2,6.88Z"/>
      <path class="cls-1" d="M597.89,176.1c-1.2,5.2-2.7,9.95-4.5,14.25-1.8,4.3-4.2,8-7.2,11.1-3,3.1-6.75,5.5-11.25,7.2-4.5,1.7-9.85,2.55-16.05,2.55-9.8,0-17.55-2.35-23.25-7.05-5.7-4.7-8.55-12.25-8.55-22.65v-85.5h-19.5l1.2-9c9.2-1.8,16.6-7.05,22.2-15.75,5.6-8.7,9.6-18.75,12-30.15l9.3-1.2v44.4h23.7c2.8,0,5.35-.22,7.65-.66,2.3-.44,4.35-.92,6.15-1.44v13.8h-37.5v78.9c0,2.4.1,4.75.3,7.05.2,2.3.75,4.45,1.65,6.45.9,2,2.35,3.6,4.35,4.8,2,1.2,4.8,1.8,8.4,1.8,5.8,0,11-2,15.6-6,4.6-4,7.4-9.1,8.4-15.3l6.9,2.4Z"/>
      <path class="cls-1" d="M713.99,181.5c-2,5.4-4.9,10.05-8.7,13.95-3.8,3.9-8.05,7.1-12.75,9.6-4.7,2.5-9.65,4.35-14.85,5.55-5.2,1.2-10.2,1.8-15,1.8-8.8,0-16.7-1.65-23.7-4.95-7-3.3-12.9-7.85-17.7-13.65-4.8-5.8-8.45-12.6-10.95-20.4-2.5-7.8-3.75-16.2-3.75-25.2s1.35-18.3,4.05-26.7c2.7-8.4,6.8-15.8,12.3-22.2,5.5-6.4,12.4-11.45,20.7-15.15,8.3-3.7,18.05-5.55,29.25-5.55,4.8,0,9.55.7,14.25,2.1,4.7,1.4,8.9,3.35,12.6,5.85,3.7,2.5,6.65,5.55,8.85,9.15,2.2,3.6,3.3,7.5,3.3,11.7s-1.7,7.45-5.1,10.35c-3.4,2.9-7.1,4.35-11.1,4.35-8.2,0-12.3-4.54-12.3-13.62,0-.6.15-1.92.45-3.93.3-2.02.45-3.83.45-5.45,0-4.03-1.85-6.96-5.55-8.77-3.7-1.81-7.55-2.72-11.55-2.72-5.8,0-10.75,1.56-14.85,4.66-4.1,3.11-7.5,7.12-10.2,12.03-2.7,4.91-4.7,10.38-6,16.4-1.3,6.02-1.95,11.83-1.95,17.45,0,8.03.8,15.5,2.4,22.42,1.6,6.92,4,12.94,7.2,18.05,3.2,5.11,7.3,9.13,12.3,12.03,5,2.91,11,4.36,18,4.36,13.4,0,24.1-6,32.1-18l7.8,4.5Z"/>
      <path class="cls-1" d="M814.19,206.7v-9c13,0,19.5-4.2,19.5-12.6v-45.9c0-28.2-9.06-42.3-27.17-42.3-20.1,0-31.55,10.4-34.33,31.2v54.6c0,10,7.3,15,21.9,15v9h-66.6v-9c13,0,19.5-5,19.5-15V41.1c0-16-6.1-24-18.3-24v-8.1l43.5-9-.3,103.8c12.6-16,27.1-24,43.5-24,7.2,0,13.5,1,18.9,3,5.4,2,9.8,4.8,13.2,8.4,3.4,3.6,5.95,7.75,7.65,12.45,1.7,4.7,2.55,9.75,2.55,15.15v66.3c0,8.4,6.9,12.6,20.7,12.6v9h-64.2Z"/>
    </g>
  </g>
</svg>